<?xml version="1.0" encoding="utf-8"?>
<!-- Generator: Adobe Illustrator 19.2.1, SVG Export Plug-In . SVG Version: 6.00 Build 0)  -->
<svg version="1.1" id="Layer_1" xmlns="http://www.w3.org/2000/svg" xmlns:xlink="http://www.w3.org/1999/xlink" x="0px" y="0px"
	 viewBox="0 0 69.6 28.2" style="enable-background:new 0 0 69.6 28.2;" xml:space="preserve">
<path d="M53.6,28c2.4-2.6,4.8-5.1,7.4-7.3c2.4-2,4.9-3.8,7.8-5.2c0.6-0.3,0.8-0.6,0.8-1.2c0-0.7-0.1-1.2-0.9-1.4
	c-0.1,0-0.1-0.1-0.1-0.1c-3.9-2-7.4-4.7-10.5-7.8c-1.6-1.6-3.1-3.2-4.6-4.8C53.4,0.1,53.2,0,53,0c-0.8,0-1.6,0-2.5,0
	c-0.1,0-0.2,0-0.3,0c2.1,4.4,4.4,8.5,7.7,12.1c-0.2,0-0.4,0-0.5,0c-16.8,0-33.5,0-50.3,0c-2.3,0-4.5,0-6.8,0C0,12.1,0,12.2,0,12.4
	c0,1,0,2,0,3c0,0.7-0.1,0.7,0.7,0.7c18.9,0,37.8,0,56.8,0c0.2,0,0.3,0,0.5,0c0,0,0,0.1,0.1,0.1c-3.2,3.6-5.6,7.6-7.6,12
	c0.1,0,0.2,0,0.3,0c0.8,0,1.5,0,2.3,0C53.3,28.3,53.5,28.2,53.6,28z"/>
</svg>
