<?xml version="1.0" encoding="utf-8"?>
<!-- Generator: Adobe Illustrator 19.2.1, SVG Export Plug-In . SVG Version: 6.00 Build 0)  -->
<svg version="1.1" id="Layer_1" xmlns="http://www.w3.org/2000/svg" xmlns:xlink="http://www.w3.org/1999/xlink" x="0px" y="0px"
	 viewBox="0 0 69.6 28.2" style="enable-background:new 0 0 69.6 28.2;" xml:space="preserve">
<path d="M16,0.2c-2.4,2.6-4.8,5.1-7.4,7.3c-2.4,2-4.9,3.8-7.8,5.2C0.2,13,0,13.3,0,13.9c0,0.7,0.1,1.2,0.9,1.4C1,15.3,1,15.4,1,15.4
	c3.9,2,7.4,4.7,10.5,7.8c1.6,1.6,3.1,3.2,4.6,4.8c0.1,0.1,0.3,0.2,0.5,0.2c0.8,0,1.6,0,2.5,0c0.1,0,0.2,0,0.3,0
	c-2.1-4.4-4.4-8.5-7.7-12.1c0.2,0,0.4,0,0.5,0c16.8,0,33.5,0,50.3,0c2.3,0,4.5,0,6.8,0c0.3,0,0.3-0.1,0.3-0.3c0-1,0-2,0-3
	c0-0.7,0.1-0.7-0.7-0.7c-18.9,0-37.8,0-56.8,0c-0.2,0-0.3,0-0.5,0c0,0,0-0.1-0.1-0.1c3.2-3.6,5.6-7.6,7.6-12c-0.1,0-0.2,0-0.3,0
	c-0.8,0-1.5,0-2.3,0C16.3-0.1,16.1,0,16,0.2z"/>
</svg>
