<?xml version="1.0" encoding="utf-8"?>
<!-- Generator: Adobe Illustrator 19.2.1, SVG Export Plug-In . SVG Version: 6.00 Build 0)  -->
<svg version="1.1" id="Layer_1" xmlns="http://www.w3.org/2000/svg" xmlns:xlink="http://www.w3.org/1999/xlink" x="0px" y="0px"
	 viewBox="0 0 28.4 69.7" style="enable-background:new 0 0 28.4 69.7;" xml:space="preserve">
<path d="M0.3,53.6c2.6,2.4,5.1,4.8,7.3,7.4c2,2.4,3.8,4.9,5.2,7.8c0.3,0.6,0.6,0.8,1.2,0.8c0.7,0,1.2-0.1,1.4-0.9
	c0-0.1,0.1-0.1,0.1-0.1c2-3.9,4.7-7.4,7.8-10.5c1.6-1.6,3.2-3.1,4.8-4.6c0.1-0.1,0.2-0.3,0.2-0.5c0-0.8,0-1.6,0-2.5
	c0-0.1,0-0.2,0-0.3c-4.4,2.1-8.5,4.4-12.1,7.7c0-0.2,0-0.4,0-0.5c0-16.8,0-33.5,0-50.3c0-2.3,0-4.5,0-6.8c0-0.3-0.1-0.3-0.3-0.3
	c-1,0-2,0-3,0c-0.7,0-0.7-0.1-0.7,0.7c0,18.9,0,37.8,0,56.8c0,0.2,0,0.3,0,0.5c0,0-0.1,0-0.1,0.1c-3.6-3.2-7.6-5.6-12-7.6
	c0,0.1,0,0.2,0,0.3c0,0.8,0,1.5,0,2.3C0,53.3,0.1,53.5,0.3,53.6z"/>
</svg>
